<svg id="Layer_1" data-name="Layer 1" xmlns="http://www.w3.org/2000/svg" xmlns:xlink="http://www.w3.org/1999/xlink" viewBox="0 0 79.1 24.4"><defs><style>.cls-1{fill:#a6a6a6;}.cls-2{fill:#39c0eb;}.cls-3{fill:#38798a;}.cls-4{fill:url(#radial-gradient);}.cls-5{fill:none;}.cls-6{fill:#2b2b2b;}.cls-7{fill:#fff;}</style><radialGradient id="radial-gradient" cx="13.15262" cy="10.44021" r="9.47131" gradientUnits="userSpaceOnUse"><stop offset="0" stop-color="#fad800"/><stop offset="0.72218" stop-color="#fad800"/><stop offset="0.84105" stop-color="#fad800"/><stop offset="0.8689" stop-color="#f5d300"/><stop offset="0.90165" stop-color="#e7c500"/><stop offset="0.93688" stop-color="#d0ad00"/><stop offset="0.9736" stop-color="#b08c00"/><stop offset="1" stop-color="#947000"/></radialGradient></defs><title>andr-PassWallet</title><path d="M4.8501.25021H74.24951a4.6001,4.6001,0,0,1,4.6001,4.6001v14.7002A4.59961,4.59961,0,0,1,74.25,24.15011H4.8501A4.6001,4.6001,0,0,1,.25,19.55V4.85031A4.6001,4.6001,0,0,1,4.8501.25021Z"/><path class="cls-1" d="M74.25.5A4.355,4.355,0,0,1,78.6,4.85006V19.55a4.355,4.355,0,0,1-4.35,4.35H4.85005A4.355,4.355,0,0,1,.5,19.55V4.85006A4.355,4.355,0,0,1,4.85005.5H74.25m0-.5H4.85005A4.85005,4.85005,0,0,0,0,4.85006V19.55A4.85,4.85,0,0,0,4.85005,24.4H74.25a4.85,4.85,0,0,0,4.85-4.85V4.85006A4.85005,4.85005,0,0,0,74.25,0Z"/><circle id="SVGID" class="cls-2" cx="13.7" cy="12.19999" r="9.3"/><circle cx="13.6" cy="12.09999" r="7.4"/><path class="cls-3" d="M13.6,20.3a8.2,8.2,0,1,1,8.2-8.2A8.17282,8.17282,0,0,1,13.6,20.3Zm0-.8a7.4,7.4,0,1,0-7.4-7.4A7.3833,7.3833,0,0,0,13.6,19.5Z"/><path class="cls-4" d="M20.16043,16.97745l-.83732-6.86432a.58518.58518,0,0,1-.14135-1.15879L18.86285,6.34a.371.371,0,0,1-.73861.01654l-.00185-.01913-.19194.02372a.37125.37125,0,1,1-.73688.09107l-.18422.02277a.37125.37125,0,1,1-.73687.09107l-.18422.02277a.37125.37125,0,1,1-.73688.09107l-.18421.02277a.37125.37125,0,1,1-.73688.09107l-.18422.02277a.37125.37125,0,1,1-.73687.09108l-.18422.02276a.37125.37125,0,1,1-.73688.09108l-.18422.02277a.37125.37125,0,1,1-.73687.09107l-.18422.02277a.37125.37125,0,1,1-.73688.09107l-.18422.02277a.37125.37125,0,1,1-.73687.09107l-.18422.02277a.37125.37125,0,1,1-.73687.09107L8.7195,7.4995a.37125.37125,0,1,1-.73687.09107l-.18422.02277a.37125.37125,0,1,1-.73687.09107l.33212,2.72278.02735-.004a.58488.58488,0,0,1,.14164,1.16112l-.02751.00274.83018,6.80572a8.2329,8.2329,0,0,0,11.79511-1.41529Z"/><polygon class="cls-5" points="14.448 17.034 14.029 17.085 14.081 17.504 14.132 17.922 14.551 17.871 14.499 17.452 14.448 17.034"/><polygon class="cls-5" points="14.448 17.034 14.866 16.982 14.815 16.564 15.233 16.513 15.182 16.094 14.763 16.146 14.345 16.197 14.396 16.615 14.448 17.034"/><rect class="cls-5" x="14.8903" y="16.95518" width="0.42155" height="0.42154" transform="translate(-1.97941 1.96827) rotate(-6.99987)"/><rect class="cls-5" x="15.25733" y="16.4854" width="0.42154" height="0.42154" transform="translate(-1.91952 2.00962) rotate(-7.00026)"/><rect class="cls-5" x="13.37823" y="15.01729" width="0.42154" height="0.42154" transform="translate(-1.75452 1.76957) rotate(-6.99991)"/><rect class="cls-5" x="14.26641" y="15.33295" width="0.42154" height="0.42154" transform="translate(-1.78636 1.88015) rotate(-6.99987)"/><polygon class="cls-5" points="15.967 15.573 15.549 15.624 15.497 15.206 15.079 15.257 15.13 15.676 15.182 16.094 15.6 16.043 15.652 16.461 16.07 16.41 16.019 15.992 15.967 15.573"/><rect class="cls-6" x="16.51253" y="16.33128" width="0.42154" height="0.42154" transform="translate(-1.89129 2.16133) rotate(-6.99991)"/><rect class="cls-6" x="15.67573" y="16.43403" width="0.42154" height="0.42154" transform="translate(-1.91005 2.06012) rotate(-6.99991)"/><rect class="cls-6" x="14.15625" y="17.89472" width="0.42154" height="0.42154" transform="translate(-2.09949 1.88593) rotate(-7.00026)"/><rect class="cls-6" x="15.82985" y="17.68923" width="0.42154" height="0.42154" transform="translate(-2.06187 2.08826) rotate(-6.99991)"/><rect class="cls-6" x="15.20595" y="16.067" width="0.42154" height="0.42154" transform="translate(-1.86891 2.00024) rotate(-7.00026)"/><rect class="cls-6" x="14.83893" y="16.53678" width="0.42154" height="0.42154" transform="translate(-1.92889 1.95899) rotate(-7.00022)"/><rect class="cls-6" x="16.30704" y="14.65768" width="0.42154" height="0.42154" transform="translate(-1.68879 2.1237) rotate(-6.99956)"/><path class="cls-6" d="M16.65,14.21517l-.25687-2.092-2.092.25686.25687,2.092Zm-.6239-1.62223.15412,1.2552-1.25519.15412-.15412-1.2552Z"/><rect class="cls-6" x="15.15936" y="12.98144" width="0.63231" height="0.63231" transform="translate(-1.50522 1.98512) rotate(-7.00003)"/><path class="cls-6" d="M10.99784,16.608,11.2547,18.7l2.092-.25686-.25686-2.092Zm.62389,1.62223-.15412-1.2552,1.2552-.15412.15412,1.2552Z"/><rect class="cls-6" x="11.85611" y="17.2094" width="0.63231" height="0.63231" transform="translate(-2.04511 1.61407) rotate(-7.00003)"/><path class="cls-6" d="M12.62748,12.58552l-2.092.25687.25686,2.092,2.092-.25686Zm-1.46811,1.8791-.15412-1.25521,1.2552-.15412.15412,1.25521Z"/><rect class="cls-6" x="11.39376" y="13.4438" width="0.63231" height="0.63231" transform="translate(-1.58964 1.52966) rotate(-7.00005)"/><polygon class="cls-6" points="11.365 16.138 11.783 16.087 11.732 15.668 12.15 15.617 12.202 16.035 12.62 15.984 12.569 15.566 12.517 15.147 12.099 15.199 11.681 15.25 11.262 15.301 10.844 15.353 10.895 15.771 11.313 15.72 11.365 16.138"/><polygon class="cls-6" points="14.029 17.085 13.611 17.137 13.662 17.555 13.714 17.973 14.132 17.922 14.081 17.504 14.029 17.085"/><polygon class="cls-6" points="13.985 13.268 13.934 12.85 13.516 12.901 13.464 12.483 13.046 12.534 13.097 12.953 13.149 13.371 13.2 13.789 13.618 13.738 13.567 13.32 13.985 13.268"/><polygon class="cls-6" points="15.336 17.349 14.918 17.401 14.866 16.982 14.448 17.034 14.499 17.452 14.551 17.871 14.969 17.819 15.02 18.238 15.439 18.186 15.387 17.768 15.806 17.716 15.754 17.298 15.703 16.88 15.285 16.931 15.336 17.349"/><polygon class="cls-6" points="13.721 14.575 14.14 14.523 14.088 14.105 14.037 13.687 13.618 13.738 13.67 14.156 13.251 14.208 13.303 14.626 13.354 15.045 13.773 14.993 13.721 14.575"/><polygon class="cls-6" points="15.549 15.624 15.967 15.573 15.916 15.155 15.865 14.736 15.446 14.788 15.028 14.839 15.079 15.257 15.497 15.206 15.549 15.624"/><polygon class="cls-6" points="15.182 16.094 15.13 15.676 15.079 15.257 14.661 15.309 14.712 15.727 14.294 15.779 14.345 16.197 14.763 16.146 15.182 16.094"/><polygon class="cls-6" points="14.396 16.615 14.345 16.197 13.927 16.248 13.508 16.3 13.56 16.718 13.978 16.667 14.029 17.085 14.448 17.034 14.396 16.615"/><polygon class="cls-6" points="17.061 17.562 17.01 17.144 16.591 17.195 16.643 17.614 16.694 18.032 17.112 17.981 17.061 17.562"/><polygon class="cls-6" points="14.661 15.309 14.609 14.89 14.191 14.942 13.773 14.993 13.824 15.412 13.405 15.463 13.354 15.045 12.936 15.096 12.987 15.514 13.038 15.933 13.457 15.881 13.875 15.83 14.294 15.779 14.242 15.36 14.661 15.309"/><polygon class="cls-6" points="16.855 15.889 16.804 15.47 16.386 15.522 15.967 15.573 16.019 15.992 16.07 16.41 16.488 16.359 16.437 15.94 16.855 15.889"/><path class="cls-7" d="M28.30135,15.92023v2.4502H27.22274V11.90656h2.52588a2.3928,2.3928,0,0,1,1.67627.55274,1.87383,1.87383,0,0,1,.60595,1.4541,1.87089,1.87089,0,0,1-.60595,1.458,2.40979,2.40979,0,0,1-1.67627.54883Zm0-.86621h1.44727a1.18289,1.18289,0,0,0,.90137-.31933,1.1383,1.1383,0,0,0,.30175-.8125,1.0902,1.0902,0,0,0-1.20312-1.15039H28.30135Z"/><path class="cls-7" d="M35.79989,18.37043c-.03858-.1211-.07031-.23926-.09571-.35547a2.55638,2.55638,0,0,1-.05078-.3457,1.90738,1.90738,0,0,1-.584.56543,1.4855,1.4855,0,0,1-.81006.22851,1.59584,1.59584,0,0,1-1.15234-.38574,1.40441,1.40441,0,0,1-.40137-1.06152,1.25259,1.25259,0,0,1,.55029-1.085,2.65951,2.65951,0,0,1,1.54932-.38867h.83935v-.42187a.7789.7789,0,0,0-.22216-.58985.87811.87811,0,0,0-.63477-.21386.90034.90034,0,0,0-.58594.17773.56428.56428,0,0,0-.21777.457H32.9454l-.00489-.02636a1.19013,1.19013,0,0,1,.50879-1.00782,2.15277,2.15277,0,0,1,1.40479-.43945,2.05444,2.05444,0,0,1,1.354.42676,1.49964,1.49964,0,0,1,.51514,1.22461V17.265a3.901,3.901,0,0,0,.04.57031,2.967,2.967,0,0,0,.1289.53516ZM34.47665,17.598a1.359,1.359,0,0,0,.73486-.2041,1.03518,1.03518,0,0,0,.4331-.46582v-.71094h-.85693a1.08088,1.08088,0,0,0-.73682.2334.70713.70713,0,0,0-.2666.54785.561.561,0,0,0,.17969.4375A.73914.73914,0,0,0,34.47665,17.598Z"/><path class="cls-7" d="M40.55477,17.06476a.49941.49941,0,0,0-.21289-.41211,2.12747,2.12747,0,0,0-.79492-.28906,3.30747,3.30747,0,0,1-1.30322-.5166,1.08549,1.08549,0,0,1-.44141-.91309,1.297,1.297,0,0,1,.51025-1.02929,2.032,2.032,0,0,1,1.34571-.42676,2.11179,2.11179,0,0,1,1.39648.43262,1.28285,1.28285,0,0,1,.49414,1.07226l-.00781.02735H40.50594a.67181.67181,0,0,0-.22656-.51075.86579.86579,0,0,0-.62109-.21289.88775.88775,0,0,0-.59473.17481.546.546,0,0,0-.2041.42871.4786.4786,0,0,0,.19336.40137,2.05929,2.05929,0,0,0,.7832.26464,3.32415,3.32415,0,0,1,1.34375.5254,1.10943,1.10943,0,0,1,.43555.92578,1.261,1.261,0,0,1-.53321,1.05273,2.28355,2.28355,0,0,1-1.41015.40332,2.14854,2.14854,0,0,1-1.479-.47949,1.35349,1.35349,0,0,1-.51513-1.10059l.00879-.02636h1.0039a.7202.7202,0,0,0,.30176.60839,1.21559,1.21559,0,0,0,.69336.19043,1.09618,1.09618,0,0,0,.64258-.16015A.49776.49776,0,0,0,40.55477,17.06476Z"/><path class="cls-7" d="M45.28329,17.06476a.502.502,0,0,0-.21289-.41211,2.13458,2.13458,0,0,0-.79493-.28906,3.30172,3.30172,0,0,1-1.30273-.5166,1.08507,1.08507,0,0,1-.44238-.91309,1.29889,1.29889,0,0,1,.51074-1.02929,2.032,2.032,0,0,1,1.3457-.42676,2.10724,2.10724,0,0,1,1.39551.43262,1.28375,1.28375,0,0,1,.49512,1.07226l-.00879.02735H45.23446a.67521.67521,0,0,0-.22656-.51075.86742.86742,0,0,0-.6211-.21289.89057.89057,0,0,0-.5957.17481.546.546,0,0,0-.2041.42871.4786.4786,0,0,0,.19336.40137,2.066,2.066,0,0,0,.7832.26464,3.31229,3.31229,0,0,1,1.34375.5254,1.11022,1.11022,0,0,1,.43652.92578,1.25937,1.25937,0,0,1-.53418,1.05273,2.28161,2.28161,0,0,1-1.41015.40332,2.14975,2.14975,0,0,1-1.47852-.47949,1.35579,1.35579,0,0,1-.51465-1.10059l.00879-.02636H43.419a.72018.72018,0,0,0,.30176.60839,1.21452,1.21452,0,0,0,.69238.19043,1.09743,1.09743,0,0,0,.64355-.16015A.5.5,0,0,0,45.28329,17.06476Z"/><path class="cls-7" d="M49.01766,16.64777v.00879l.00391-.02246,1.292-4.72754h.86133l1.30566,4.74121.00391.03125.00488-.04492,1.02051-4.72754h1.06152l-1.53613,6.46387h-.98145l-1.292-4.63965h-.02637l-1.29589,4.63965h-.98633L46.922,11.90656H47.9825Z"/><path class="cls-7" d="M58.0909,18.37043c-.03808-.1211-.07031-.23926-.09472-.35547a2.638,2.638,0,0,1-.05176-.3457,1.89849,1.89849,0,0,1-.583.56543,1.48715,1.48715,0,0,1-.81055.22851,1.59586,1.59586,0,0,1-1.15234-.38574,1.40441,1.40441,0,0,1-.40137-1.06152,1.253,1.253,0,0,1,.55078-1.085,2.65576,2.65576,0,0,1,1.54883-.38867h.83887v-.42187a.7768.7768,0,0,0-.22168-.58985.87889.87889,0,0,0-.63477-.21386.89848.89848,0,0,0-.58593.17773.5629.5629,0,0,0-.21778.457H55.23641l-.00391-.02636a1.18786,1.18786,0,0,1,.50782-1.00782,2.156,2.156,0,0,1,1.40527-.43945,2.05673,2.05673,0,0,1,1.35449.42676,1.50075,1.50075,0,0,1,.51465,1.22461V17.265a3.97022,3.97022,0,0,0,.04.57031,2.96791,2.96791,0,0,0,.12891.53516ZM56.76864,17.598a1.35854,1.35854,0,0,0,.73437-.2041,1.02843,1.02843,0,0,0,.43262-.46582v-.71094h-.85645a1.08392,1.08392,0,0,0-.7373.2334.70713.70713,0,0,0-.2666.54785.56.56,0,0,0,.18066.4375A.73581.73581,0,0,0,56.76864,17.598Z"/><path class="cls-7" d="M61.297,18.37043H60.21883V11.44465H61.297Z"/><path class="cls-7" d="M63.65438,18.37043H62.57625V11.44465h1.07813Z"/><path class="cls-7" d="M66.922,18.4632a2.08909,2.08909,0,0,1-1.627-.668,2.45431,2.45431,0,0,1-.60546-1.71582v-.17773a2.5465,2.5465,0,0,1,.60156-1.73731,1.9,1.9,0,0,1,1.50683-.68652,1.87574,1.87574,0,0,1,1.48926.58887,2.30355,2.30355,0,0,1,.51758,1.57812v.63477H65.8077l-.00879.02148a1.5046,1.5046,0,0,0,.335.9336,1.063,1.063,0,0,0,.85547.36328,2.298,2.298,0,0,0,.74512-.10645,2.43728,2.43728,0,0,0,.59961-.30664l.34668.708a2.23274,2.23274,0,0,1-.71973.40527A2.99384,2.99384,0,0,1,66.922,18.4632Zm-.124-4.11914a.80874.80874,0,0,0-.65722.31738,1.55251,1.55251,0,0,0-.31934.80567l.00879.02246h1.9043v-.11133a1.15106,1.15106,0,0,0-.23242-.74609A.85277.85277,0,0,0,66.79793,14.34406Z"/><path class="cls-7" d="M71.01571,12.39875v1.168H71.877v.79883h-.86133v2.65527a.57756.57756,0,0,0,.1289.42383.46365.46365,0,0,0,.3418.127,1.01542,1.01542,0,0,0,.17285-.01563,1.129,1.129,0,0,0,.16016-.042l.11523.79a1.25873,1.25873,0,0,1-.3291.11719,1.809,1.809,0,0,1-.39453.042,1.23676,1.23676,0,0,1-.93262-.34765,1.52908,1.52908,0,0,1-.33691-1.09473V14.36555h-.73242v-.79883h.73242v-1.168Z"/><path class="cls-7" d="M29.36727,8.81379h-1.9541l-.43945,1.18945h-.36329l1.62012-4.26562h.33106L30.17,10.00324h-.36328Zm-1.83691-.31348H29.253L28.4034,6.19172h-.01757Z"/><path class="cls-7" d="M31.03719,6.83332l.03223.55371a1.128,1.128,0,0,1,.41162-.45215,1.1474,1.1474,0,0,1,.61377-.16016.97922.97922,0,0,1,.78516.31446,1.49346,1.49346,0,0,1,.26953.9834v1.93066h-.35157V8.0716a1.15354,1.15354,0,0,0-.20361-.77246.73938.73938,0,0,0-.57861-.22559.90691.90691,0,0,0-.602.19532,1.08571,1.08571,0,0,0-.33545.51757v2.2168h-.35156V6.83332Z"/><path class="cls-7" d="M33.92879,8.44465a2.07355,2.07355,0,0,1,.3208-1.21485,1.03494,1.03494,0,0,1,.895-.45508,1.12718,1.12718,0,0,1,.57422.14063,1.1593,1.1593,0,0,1,.4043.39844V5.43293h.34863v4.57031h-.31054l-.0293-.46a1.08727,1.08727,0,0,1-.40723.38672,1.21312,1.21312,0,0,1-.58594.13476,1.05265,1.05265,0,0,1-.88916-.42285,1.83608,1.83608,0,0,1-.3208-1.13574Zm.35157.06152a1.62486,1.62486,0,0,0,.23.919.779.779,0,0,0,.69287.34082.98829.98829,0,0,0,.56689-.15332,1.0091,1.0091,0,0,0,.353-.42383V7.69465a1.13311,1.13311,0,0,0-.33984-.44922.90726.90726,0,0,0-.57422-.17188.76322.76322,0,0,0-.6958.38086,1.87672,1.87672,0,0,0-.23291.99024Z"/><path class="cls-7" d="M38.86434,7.13508l-.25976-.01758a.795.795,0,0,0-.54346.18652,1.02433,1.02433,0,0,0-.30322.51074v2.18848h-.35157V6.83332h.30762l.044.52734v.03516a1.1389,1.1389,0,0,1,.36914-.457.92662.92662,0,0,1,.5498-.16407.94784.94784,0,0,1,.13086.00977c.042.00781.07617.01465.10352.02246Z"/><path class="cls-7" d="M39.19344,8.3714A1.70351,1.70351,0,0,1,39.57723,7.223a1.38024,1.38024,0,0,1,2.03613,0,1.70351,1.70351,0,0,1,.38379,1.14843v.09668a1.703,1.703,0,0,1-.38281,1.15039,1.26684,1.26684,0,0,1-1.01465.44629,1.28,1.28,0,0,1-1.02246-.44629,1.70351,1.70351,0,0,1-.38379-1.15039Zm.35156.09473a1.50515,1.50515,0,0,0,.27833.92481.98308.98308,0,0,0,1.54492,0,1.49994,1.49994,0,0,0,.28027-.92481v-.0957a1.49252,1.49252,0,0,0-.28125-.919.97739.97739,0,0,0-1.54394,0,1.5034,1.5034,0,0,0-.27833.919Z"/><path class="cls-7" d="M43.12215,5.92512h-.34863V5.43293h.34863Zm0,4.07812h-.34863V6.83332h.34863Z"/><path class="cls-7" d="M43.95321,8.44465A2.06632,2.06632,0,0,1,44.2745,7.2298a1.03292,1.03292,0,0,1,.89453-.45508,1.1272,1.1272,0,0,1,.57422.14063,1.15927,1.15927,0,0,1,.40429.39844V5.43293h.34864v4.57031h-.31055l-.0293-.46a1.08732,1.08732,0,0,1-.40722.38672,1.21315,1.21315,0,0,1-.58594.13476,1.05051,1.05051,0,0,1-.88867-.42285,1.82982,1.82982,0,0,1-.32129-1.13574Zm.35156.06152a1.62491,1.62491,0,0,0,.22949.919.77987.77987,0,0,0,.69336.34082.98671.98671,0,0,0,.56641-.15332,1.0101,1.0101,0,0,0,.35351-.42383V7.69465a1.133,1.133,0,0,0-.33984-.44922.90724.90724,0,0,0-.57422-.17188.76142.76142,0,0,0-.69531.38086,1.86757,1.86757,0,0,0-.2334.99024Z"/></svg>